<?xml version="1.0" encoding="UTF-8" standalone="no"?>
<!-- Created with Inkscape (http://www.inkscape.org/) -->

<svg
   width="750"
   height="749.99994"
   id="svg3295"
   version="1.1"
   inkscape:version="1.2 (dc2aeda, 2022-05-15)"
   sodipodi:docname="Logo Fédération Calédonienne Football.svg"
   xmlns:inkscape="http://www.inkscape.org/namespaces/inkscape"
   xmlns:sodipodi="http://sodipodi.sourceforge.net/DTD/sodipodi-0.dtd"
   xmlns="http://www.w3.org/2000/svg"
   xmlns:svg="http://www.w3.org/2000/svg"
   xmlns:rdf="http://www.w3.org/1999/02/22-rdf-syntax-ns#"
   xmlns:cc="http://creativecommons.org/ns#"
   xmlns:dc="http://purl.org/dc/elements/1.1/">
  <defs
     id="defs3297" />
  <sodipodi:namedview
     id="base"
     pagecolor="#ffffff"
     bordercolor="#666666"
     borderopacity="1.0"
     inkscape:pageopacity="0.0"
     inkscape:pageshadow="2"
     inkscape:zoom="0.32767306"
     inkscape:cx="550.85395"
     inkscape:cy="291.44904"
     inkscape:document-units="px"
     inkscape:current-layer="layer1"
     showgrid="false"
     inkscape:window-width="1440"
     inkscape:window-height="741"
     inkscape:window-x="-1"
     inkscape:window-y="25"
     inkscape:window-maximized="0"
     inkscape:showpageshadow="2"
     inkscape:pagecheckerboard="0"
     inkscape:deskcolor="#d1d1d1" />
  <metadata
     id="metadata3300">
    <rdf:RDF>
      <cc:Work
         rdf:about="">
        <dc:format>image/svg+xml</dc:format>
        <dc:type
           rdf:resource="http://purl.org/dc/dcmitype/StillImage" />
        <dc:title />
      </cc:Work>
    </rdf:RDF>
  </metadata>
  <g
     inkscape:label="Layer 1"
     inkscape:groupmode="layer"
     id="layer1"
     transform="translate(-0.29456414,-736.58605)">
    <g
       id="g17747">
      <g
         id="g16205">
        <path
           style="color:#000000;fill:#c1272d;stroke-width:0.972778"
           d="m 375.29456,736.58605 c -207.0932,0 -374.99999586,167.90724 -374.99999586,375.00095 0,207.0938 167.90679586,374.999 374.99999586,374.999 207.0932,0 375,-167.9052 375,-374.999 0,-207.09371 -167.9068,-375.00095 -375,-375.00095 z"
           id="path3804" />
        <path
           style="color:#000000;fill:#ffffff;stroke-width:0.972778"
           d="m 375.29456,738.01103 c 206.32312,0 373.57501,167.2523 373.575,373.57597 0,206.3236 -167.25188,373.574 -373.575,373.574 -206.32312,0 -373.5749968,-167.2504 -373.5749967,-373.574 0,-206.32367 167.2518767,-373.57597 373.5749967,-373.57597 z"
           id="path4017" />
      </g>
      <g
         id="g17737">
        <path
           style="color:#000000;fill:#9d9fa2;stroke-width:0.972778"
           d="m 124.83454,1369.9825 -0.99177,1.0222 c 65.0708,63.1507 153.8206,102.0144 251.68168,102.0144 97.61219,0 186.19007,-38.689 251.2219,-101.5907 l -0.99178,-1.0241 c -64.77698,62.6552 -152.99439,101.1899 -250.23012,101.1899 -97.4839,0 -185.87407,-38.7084 -250.68991,-101.6117 z"
           id="path3124" />
        <path
           style="color:#000000;fill:#9d9fa2;stroke-width:0.972778"
           d="m 572.22992,1319.7039 c -50.99955,50.0244 -120.47689,80.8147 -197.05221,80.8147 -76.44096,0 -145.80123,-30.676 -196.82041,-80.5677 l -0.99558,1.0184 c 51.27202,50.1389 120.99382,80.9743 197.81599,80.9743 76.95729,0 146.79695,-30.9505 198.04969,-81.2232 z"
           id="path3122" />
        <path
           style="color:#000000;fill:#9d9fa2;stroke-width:0.972778"
           d="m 375.31166,823.891 c -151.3195,0 -275.09793,119.63282 -284.395156,270.7117 l 1.423067,0.087 C 101.59202,944.33863 224.74306,825.31567 375.31166,825.31567 c 150.32071,0 273.30311,118.62172 282.9379,268.62933 l 1.42306,-0.091 C 649.9912,943.12041 526.38199,823.891 375.31166,823.891 Z"
           id="path3120" />
        <path
           style="color:#000000;fill:#9d9fa2;stroke-width:0.972778"
           d="m 375.33351,750.15365 c -193.68844,0 -351.795507,152.36225 -361.029946,343.73085 l 1.423068,0.068 C 24.925091,903.32991 182.39222,751.57861 375.33351,751.57861 c 192.61551,0 349.86881,151.25458 359.52898,341.47559 l 1.42307,-0.072 C 726.5876,902.01692 568.69496,750.15365 375.33351,750.15365 Z"
           id="path3806" />
      </g>
    </g>
    <g
       id="g17731">
      <g
         id="g2673"
         transform="matrix(0.97277831,0,0,0.97277831,5.682844,741.90593)">
        <path
           style="color:#000000;fill:#c1272d"
           d="m 22.470703,212.55273 -2.177734,20.50782 34.175781,3.625 0.464844,-4.3418 -15.988282,-1.68945 1.267579,-11.99219 -3.791016,-0.4141 -1.265625,11.99414 -10.623047,-1.12305 1.714844,-16.16602 z"
           id="polygon3874"
           transform="matrix(1.5390458,0,0,1.5390458,-6.5517216,-6.4806273)"
           sodipodi:nodetypes="ccccccccccc" />
        <path
           id="path2484"
           style="color:#000000;fill:#c1272d"
           d="m 47.671405,277.7643 -6.444975,25.27795 41.864225,10.66132 6.72004,-26.44046 -4.354875,-1.10428 -5.455139,21.37282 -15.343456,-3.91919 3.664199,-14.37972 -4.378969,-1.10629 -3.644121,14.38173 -13.411972,-3.40519 5.141926,-20.2324 z m -11.327896,1.31108 -1.766847,6.92082 7.232024,7.56532 1.12235,-4.35287 z" />
        <path
           style="color:#000000;fill:#c1272d"
           d="m 68.767578,237.17578 c -4.667309,1.78501 -8.242921,5.6134 -10.46875,11.0293 l -4.447266,10.84375 39.972657,16.38081 4.345703,-10.60742 c 2.444658,-5.96219 2.261688,-11.40279 -0.01172,-15.9375 -2.273408,-4.53472 -6.620825,-8.15497 -12.453125,-10.54493 -3.266204,-1.34326 -6.333575,-2.0793 -9.167968,-2.25779 -2.834394,-0.17848 -5.435876,0.20128 -7.769531,1.09378 z m 14.939456,5.99219 c 5.275449,2.16248 8.745829,4.94818 10.44336,8.28711 1.69753,3.33893 1.647745,7.25383 -0.195313,11.75976 L 91.625,268.89648 60.009766,255.92578 62.4375,250.02734 c 1.647343,-4.01668 4.109493,-6.8867 7.572266,-8.18554 1.731386,-0.64943 3.72203,-0.90764 5.996095,-0.70899 2.274064,0.19865 4.833378,0.85554 7.701173,2.03516 z"
           id="path3882"
           sodipodi:nodetypes="sccccsccscsccccscc" />
        <path
           id="path2476"
           style="color:#000000;fill:#c1272d"
           d="m 74.862771,191.37153 -3.555778,6.19601 4.919061,9.25787 2.266784,-3.90312 z m 11.249593,1.78893 -12.990338,22.62568 37.461164,21.51938 13.58263,-23.67173 -3.91316,-2.23064 -10.97252,19.10604 -13.739241,-7.8705 7.388631,-12.88393 -3.913163,-2.23265 -7.386623,12.85983 -12.00251,-6.8646 10.400301,-18.12222 z" />
        <path
           style="color:#000000;fill:#c1272d"
           d="m 116.91797,158.8418 c -0.76533,-0.002 -1.53335,0.0886 -2.30078,0.27343 -3.06973,0.73921 -6.10937,2.95713 -8.94922,6.63086 l -8.560548,11.04883 34.111328,26.48047 3.19727,-4.11133 -15.32618,-11.89844 5.87891,-7.58007 20.62305,5.06445 3.5039,-4.48242 -21.76562,-5.37305 c 0.8255,-2.43377 1.12823,-4.85144 0.61719,-7.125 -0.52962,-2.35616 -1.90261,-4.54861 -4.32422,-6.41992 -2.13969,-1.65931 -4.40909,-2.50205 -6.70508,-2.50781 z m 0.5274,5.17382 c 1.00385,0.21996 2.04749,0.73722 3.15821,1.60157 2.08659,1.62325 3.04772,3.41605 3.03125,5.4414 -0.0165,2.02536 -1.03312,4.31436 -3.01368,6.86133 l -5.08984,6.58399 -11.66992,-9.05664 5.07226,-6.54297 c 1.85751,-2.38528 3.7038,-4.06228 5.59766,-4.70899 0.94693,-0.32335 1.91022,-0.39964 2.91406,-0.17969 z"
           id="path3890"
           sodipodi:nodetypes="cccccccccccsccscsccccss" />
        <path
           style="color:#000000;fill:#c1272d"
           d="m 139.30859,128.3457 -5.30273,5.19727 20.7832,40.1289 3.91406,-3.8457 -6.50195,-12.37109 10.67383,-10.46094 12.25391,6.71875 3.89062,-3.84961 z m 0.1211,5.19727 19.35547,11.14844 -8.79688,8.63086 -10.76758,-19.57032 z"
           id="path3894"
           sodipodi:nodetypes="cccccccccccccc" />
        <path
           style="color:#000000;fill:#c1272d"
           d="m 122.28516,64.804687 -15.90625,12.123047 1.77929,2.326172 6.5918,-5.015625 15.23242,19.992188 2.69727,-2.0625 -0.0957,-0.126953 -15.12304,-19.865235 6.60547,-5.03125 z"
           id="polygon3898"
           transform="matrix(1.5390458,0,0,1.5390458,-6.5517216,-6.4806273)" />
        <path
           style="color:#000000;fill:#c1272d"
           d="m 132.12305,58.626953 -2.88086,1.808594 14.95312,23.755859 2.88086,-1.80664 -0.0859,-0.136719 z"
           id="polygon3902"
           transform="matrix(1.5390458,0,0,1.5390458,-6.5517216,-6.4806273)" />
        <path
           style="color:#000000;fill:#c1272d"
           d="m 224.43232,67.683186 c -3.5621,1.750374 -6.51611,5.389085 -7.46162,10.04919 -0.9455,4.660105 0.10287,10.321704 3.25977,16.746094 3.15848,6.42447 7.00504,10.71221 11.27734,12.80859 4.2723,2.09638 8.96283,1.97614 13.71485,-0.36523 4.75252,-2.34202 7.70663,-5.97909 8.65234,-10.63672 0.94571,-4.657632 -0.10211,-10.313929 -3.25977,-16.738281 -3.16772,-6.434435 -7.01866,-10.722543 -11.29101,-12.816406 -2.13618,-1.046932 -4.3755,-1.538617 -6.67383,-1.476537 -2.29833,0.06208 -4.65596,0.678925 -8.21807,2.4293 z m 12.78847,3.53947 c 3.0847,1.719563 6.04054,5.209007 8.7168,10.628906 2.6556,5.409763 3.61659,9.872725 3.0957,13.359375 -0.52094,3.487055 -2.49875,6.017803 -5.82031,7.644533 -3.31164,1.63652 -6.52389,1.65959 -9.60352,-0.0547 -3.07962,-1.71427 -6.02736,-5.196952 -8.68359,-10.607421 -2.66553,-5.419888 -3.63113,-9.886523 -3.11523,-13.378906 0.51576,-3.49149 2.48863,-6.029406 4.97241,-7.254995 2.48378,-1.22559 4.11498,-1.637114 5.71744,-1.629788 1.60246,0.0073 3.17795,0.433215 4.7203,1.292996 z"
           id="path3906"
           sodipodi:nodetypes="cscscscsccscscscsccs" />
        <path
           style="color:#000000;fill:#c1272d"
           d="m 191.60547,32.662109 -2.95313,0.941407 6.40235,20.214843 -17.86133,-16.591797 -4.43945,1.394532 0.0488,0.152343 8.40625,26.609375 2.95313,-0.927734 -7.38477,-23.306641 20.62305,19.119141 2.6582,-0.84375 z"
           id="polygon3910"
           transform="matrix(1.5390458,0,0,1.5390458,-6.5517216,-6.4806273)" />
      </g>
      <g
         id="g17691">
        <path
           id="path3926"
           style="color:#000000;fill:#c1272d;stroke-width:0.972778"
           d="m 509.19522,790.93324 -8.35546,5.8789 4.0371,1.70508 10.47852,-5.01562 z m -17.40234,3.94336 -16.22656,38.74804 24.47265,10.26367 1.69922,-4.04296 -19.79492,-8.29688 5.94727,-14.20117 13.33984,5.55859 1.67578,-4.04492 -13.3164,-5.57617 5.21679,-12.39844 18.72266,7.85547 1.58789,-4.08789 z" />
        <path
           id="path10188"
           style="color:#000000;fill:#c1272d;stroke-width:0.5"
           d="m 372.61124,763.99183 c -12.14936,0.19163 -19.14299,9.82981 -18.875,26.27148 0.30691,17.70677 8.4123,25.8322 19.71875,25.6211 10.36625,-0.15271 15.42672,-6.68802 17.5332,-16.07813 l -5.05664,-0.91797 c -1.43876,6.19071 -4.35012,12.1094 -12.11133,12.24415 -8.3945,0.13474 -14.23825,-6.34371 -14.48828,-20.96485 -0.22906,-14.4864 5.40539,-21.28902 12.6875,-21.4043 7.55012,-0.13474 10.82591,4.15906 12.76173,11.24805 l 5.15429,-1.60937 c -2.37598,-9.19848 -7.93411,-14.56437 -17.32422,-14.41016 z" />
        <path
           style="color:#000000;fill:#c1272d;stroke-width:0.972778"
           d="m 372.61619,764.24183 c 4.64665,-0.0763 8.31259,1.20654 11.12426,3.63652 2.76043,2.3857 4.68138,5.91743 5.86707,10.36427 l -4.6739,1.45917 c -0.96643,-3.44315 -2.25244,-6.26242 -4.25401,-8.20212 -2.05342,-1.98996 -4.84073,-3.05496 -8.6638,-2.98673 -3.71786,0.0589 -7.03842,1.84171 -9.36679,5.42628 -2.32837,3.58456 -3.68128,8.95702 -3.56622,16.23323 0.12557,7.34324 1.65277,12.66864 4.2388,16.15914 2.58603,3.49051 6.2405,5.11851 10.50297,5.05009 3.94358,-0.0685 6.69722,-1.62258 8.61441,-3.94051 1.86869,-2.2593 2.94093,-5.23398 3.66502,-8.26672 l 4.55609,0.82648 c -1.05419,4.54664 -2.79291,8.40491 -5.51748,11.13186 -2.7786,2.78104 -6.55923,4.42541 -11.69043,4.501 h -0.002 c -5.59224,0.10441 -10.35628,-1.84023 -13.78608,-6.00007 -3.42981,-4.15984 -5.52427,-10.55795 -5.67708,-19.37387 -0.13341,-8.18461 1.5423,-14.65048 4.7328,-19.07937 3.19049,-4.4289 7.88694,-6.84386 13.89629,-6.93865 z"
           id="path10196" />
        <path
           style="color:#000000;fill:#c1272d;stroke-width:0.972778"
           d="m 358.31498,770.88788 c -3.27666,4.54851 -4.96237,11.12251 -4.82779,19.37957 0.15411,8.89085 2.26485,15.40869 5.79107,19.68546 3.52622,4.27678 8.46709,6.28725 14.18128,6.18056 5.23505,-0.0771 9.16644,-1.77498 12.03624,-4.64729 2.86979,-2.87231 4.67608,-6.90115 5.73597,-11.62584 l 0.057,-0.2527 -5.54597,-1.00697 -0.0551,0.23179 c -0.71495,3.07625 -1.79423,6.06674 -3.63272,8.28952 -1.83848,2.22277 -4.42059,3.69373 -8.23821,3.76001 -4.13204,0.0663 -7.59751,-1.47648 -10.09448,-4.84679 -2.49697,-3.3703 -4.01556,-8.59434 -4.14001,-15.87225 -0.114,-7.21018 1.23432,-12.48299 3.48643,-15.95014 2.2521,-3.46715 5.39024,-5.14376 8.9545,-5.20018 3.72704,-0.0665 6.35256,0.95064 8.30851,2.84613 1.95594,1.8955 3.24656,4.69692 4.2084,8.21922 l 0.0684,0.24889 5.62767,-1.75746 -0.0589,-0.22989 c -1.19686,-4.63355 -3.20135,-8.32523 -6.11026,-10.83926 -2.90892,-2.51403 -6.71708,-3.83602 -12.15885,-3.74864 -5.44177,0.0874 -10.31659,2.58775 -13.59325,7.13626 z"
           id="path10190"
           sodipodi:nodetypes="scscsccccscscscsccccscs" />
        <path
           id="path3918"
           style="color:#000000;fill:#c1272d;stroke-width:0.972778"
           d="m 418.8085,776.49183 -18.91797,39.69727 5.26563,0.7832 5.77149,-12.30274 14.40234,2.13282 1.97461,13.43359 5.26562,0.7832 -6.64648,-43.45898 z m 2.8711,4.1875 0.27539,0.041 2.73242,21.54492 -11.85156,-1.74804 z"
           sodipodi:nodetypes="cccccccccccccc" />
        <path
           style="color:#000000;fill:#c1272d;stroke-width:1.49715"
           d="m 452.55129,783.2766 3.96803,1.09947 -9.94494,36.27666 18.98924,5.19032 -0.92401,3.33642 -22.93974,-6.31318 z"
           id="path836" />
        <path
           style="color:#000000;fill:#c1272d;stroke-width:1.49715"
           d="m 452.18724,782.80436 -11.07511,40.39528 23.85792,6.56465 1.18134,-4.2546 -18.98924,-5.19324 9.94494,-36.27373 z"
           id="polygon3922"
           sodipodi:nodetypes="ccccccc" />
        <path
           id="path3930"
           style="color:#000000;fill:#c1272d;stroke-width:0.972778"
           d="m 532.34757,813.35511 -21.47656,36.08985 9.57422,5.71875 c 5.40237,3.20865 10.66363,3.809 15.3496,2.26562 4.68598,-1.54338 8.78598,-5.21469 11.92188,-10.49219 3.51983,-5.89149 4.58974,-11.376 3.53906,-16.12304 -1.05068,-4.74705 -4.22343,-8.73645 -9.10546,-11.64649 z m 2.11914,6.36524 5.33399,3.17382 c 3.62121,2.15214 6.02607,4.92709 6.7832,8.44336 0.75713,3.51627 -0.1316,7.80639 -3.20704,12.9961 -2.83775,4.76952 -6.01912,7.70923 -9.47851,8.86327 -3.45939,1.15405 -7.22445,0.54416 -11.29493,-1.875 l -5.13671,-3.04101 z"
           sodipodi:nodetypes="cccscsccccscsccc" />
        <path
           id="path3934"
           style="color:#000000;fill:#c1272d;stroke-width:0.972778"
           d="m 572.44913,842.23792 c -1.1095,0.003 -2.22856,0.1424 -3.35156,0.41797 -4.49201,1.10228 -9.03729,4.37565 -13.3789,9.81641 -4.34314,5.45054 -6.51932,10.61418 -6.58985,15.24024 -0.0705,4.62562 1.98123,8.69701 6.01171,11.90429 4.02146,3.21731 8.44931,4.31077 12.94141,3.21094 4.4921,-1.09982 9.03772,-4.37053 13.38087,-9.82031 4.34242,-5.44159 6.51716,-10.60071 6.58788,-15.22657 0.0707,-4.62586 -1.98064,-8.70083 -6.01172,-11.91797 -3.01726,-2.41357 -6.26132,-3.63269 -9.58984,-3.625 z m 0.1289,4.69336 c 2.37614,-0.1187 4.61988,0.68974 6.72461,2.3711 2.80832,2.23208 4.15649,5.05166 3.92188,8.47656 -0.23461,3.4249 -2.07997,7.46855 -5.74023,12.05468 -3.66115,4.59525 -7.19034,7.29877 -10.47462,8.29102 -3.28427,0.99225 -6.33036,0.30415 -9.13671,-1.94727 v -0.002 c -2.80685,-2.23282 -4.15631,-5.05166 -3.92188,-8.47657 0.23442,-3.42491 2.07923,-7.46932 5.74024,-12.05469 h 0.002 c 3.65128,-4.59501 7.17846,-7.2933 10.46484,-8.2832 0.8216,-0.24747 1.62787,-0.39012 2.41992,-0.42969 z" />
        <path
           style="color:#000000;fill:#c1272d;stroke-width:1.49715"
           d="m 609.38071,870.56456 -30.89627,28.47218 3.12297,3.40076 26.93993,-24.84042 -12.84274,40.12188 2.82177,3.07618 30.89628,-28.47511 -3.12004,-3.39783 -23.34618,21.52153 11.18476,-34.75318 z"
           id="polygon3938"
           sodipodi:nodetypes="ccccccccccc" />
        <path
           style="color:#000000;fill:#c1272d;stroke-width:1.49715"
           d="m 640.40272,906.59267 -33.72682,25.06557 3.04401,4.05868 33.70928,-25.06257 z"
           id="polygon3942"
           sodipodi:nodetypes="ccccc" />
        <path
           style="color:#000000;fill:#c1272d;stroke-width:1.49715"
           d="m 653.59929,924.97662 -35.93746,21.78764 13.76092,22.71457 3.73994,-2.2808 -11.09411,-18.35764 13.15855,-7.97408 7.47406,12.34272 3.76042,-2.28082 -7.49453,-12.35735 11.51227,-6.97988 10.54146,17.40438 3.74288,-2.30424 z"
           id="polygon3946"
           sodipodi:nodetypes="ccccccccccccc" />
        <path
           style="color:#000000;fill:#c1272d;stroke-width:1.49715"
           d="m 675.27873,963.18321 -38.61012,16.49496 1.81588,4.25168 33.62157,-14.37791 -25.47204,33.50166 1.64336,3.8335 38.64812,-16.49495 -1.83635,-4.25167 -29.14179,12.44215 22.10635,-28.97805 z"
           id="polygon3950"
           sodipodi:nodetypes="ccccccccccc" />
        <path
           style="color:#000000;fill:#c1272d;stroke-width:1.49715"
           d="m 693.39367,1009.2527 -40.68331,10.6029 1.17548,4.468 35.44914,-9.249 -30.21788,29.3875 1.05269,4.0236 40.68623,-10.5824 -1.17842,-4.4681 -30.72375,8.0062 26.20306,-25.4223 z"
           id="polygon3954"
           sodipodi:nodetypes="ccccccccccc" />
        <path
           style="color:#000000;fill:#c1272d;stroke-width:1.49715"
           d="m 704.41467,1058.3575 -41.73307,4.7663 2.98846,26.3815 4.38326,-0.4942 -2.45334,-21.3256 15.31363,-1.7487 1.63166,14.3312 4.36278,-0.4737 -1.62873,-14.3721 13.36323,-1.5176 2.29837,20.1793 4.36279,-0.4971 z"
           id="polygon3958"
           sodipodi:nodetypes="ccccccccccccc" />
      </g>
      <g
         id="g2271"
         transform="matrix(0.97277831,0,0,0.97277831,5.682844,741.90593)">
        <path
           id="path3962"
           style="color:#000000;fill:#c1272d"
           d="m 162.68308,612.02958 -27.7154,33.13641 8.81616,7.36453 c 4.94814,4.13379 10.18397,5.60725 15.19087,4.81065 5.00688,-0.79662 9.76887,-3.84867 13.81553,-8.69972 4.5299,-5.40272 6.51416,-10.79315 6.22412,-15.78316 -0.29003,-4.98999 -2.85692,-9.55931 -7.33844,-13.30556 z m 1.12435,6.81842 4.87489,4.09788 c 3.32391,2.76802 5.30877,5.98101 5.49931,9.6775 0.19054,3.69649 -1.41855,7.91089 -5.39289,12.6691 -3.66046,4.37465 -7.37238,6.84138 -11.0709,7.44886 -3.69853,0.60747 -7.41168,-0.62684 -11.13716,-3.75656 l -4.71828,-3.93926 z"
           sodipodi:nodetypes="cccscsccccscsccc" />
        <path
           style="color:#000000;fill:#c1272d"
           d="m 133.05859,420.09766 -14.93945,23.75586 15.01563,9.44921 1.55273,-2.48242 -12.13477,-7.64258 5.47461,-8.71484 8.16602,5.14453 1.56641,-2.48437 -8.16602,-5.13086 4.7832,-7.60157 11.48047,7.21875 1.55079,-2.48437 z"
           id="polygon3966"
           transform="matrix(1.5390458,0,0,1.5390458,-6.5517216,-6.4806273)"
           sodipodi:nodetypes="ccccccccccccc" />
        <path
           style="color:#000000;fill:#c1272d"
           d="m 188.83398,440.53516 -8.97265,33.1875 4.2207,1.13671 4.18555,-15.51367 11.64844,3.13672 0.99606,-3.66992 -11.63477,-3.13672 2.7793,-10.30664 15.69141,4.23828 0.99804,-3.68359 z"
           id="polygon3970"
           transform="matrix(1.5390458,0,0,1.5390458,-6.5517216,-6.4806273)"
           sodipodi:nodetypes="ccccccccccc" />
        <path
           style="color:#000000;fill:#c1272d"
           d="m 338.66797,692.55273 c -3.62593,0.33442 -6.75039,1.81045 -9.23047,4.37891 -3.30677,3.42462 -5.47055,8.76463 -6.26172,15.88281 -0.7718,7.12564 0.1723,12.80589 2.64844,16.86328 2.47614,4.0574 6.48984,6.46856 11.75593,7.04647 5.26609,0.57792 9.71544,-0.90209 13.01756,-4.32186 3.30211,-3.41977 5.4564,-8.75448 6.23828,-15.87109 0.79194,-7.12752 -0.1538,-12.81261 -2.63282,-16.875 -2.47901,-4.06239 -6.49767,-6.47632 -11.74804,-7.05469 -1.29499,-0.0523 -2.62992,-0.14438 -3.78716,-0.0488 z m 0.66015,4.5293 c 0.8363,-0.0932 1.71753,-0.076 2.63672,0.0254 3.66111,0.40705 6.37908,2.11525 8.05274,5.21875 1.67365,3.10351 2.28728,7.62881 1.62109,13.63672 -0.65621,5.98862 -2.24065,10.27064 -4.55078,12.93555 -2.31013,2.66491 -5.33495,3.74417 -9.00586,3.33789 -3.67026,-0.40705 -6.39187,-2.12096 -8.07031,-5.22461 -1.67824,-3.10327 -2.29644,-7.6246 -1.64063,-13.61133 v -0.002 c 0.66634,-6.00686 2.25363,-10.29227 4.56836,-12.95703 1.91685,-1.81006 4.2598,-3.12199 6.38867,-3.35934 z"
           id="path3974"
           sodipodi:nodetypes="sscscscsccsscscsccccss" />
        <path
           style="color:#000000;fill:#c1272d"
           d="m 389.57812,694.33398 c -5.28046,0.19927 -9.46002,2.31307 -12.22656,6.17774 -2.76653,3.86467 -4.12354,9.45571 -3.86523,16.61328 0.26681,7.15684 2.03196,12.64019 5.07617,16.29492 3.04421,3.65473 7.36962,5.45592 12.65039,5.25586 5.29973,-0.18991 9.48865,-2.30279 12.25781,-6.16992 2.76917,-3.86713 4.12306,-9.46347 3.85547,-16.62109 -0.26681,-7.15673 -2.02796,-12.63481 -5.07226,-16.28711 -3.04431,-3.6523 -7.37548,-5.45358 -12.67579,-5.26368 z m 0.15814,4.50977 c 3.69941,-0.13545 6.64365,1.15635 8.75586,3.98242 2.1122,2.82607 3.37977,7.21616 3.5957,13.25391 0.22589,6.02776 -0.71584,10.49463 -2.61133,13.4707 -1.89549,2.97607 -4.72989,4.4883 -8.41992,4.63281 -3.68911,0.12635 -6.63488,-1.17628 -8.75,-4.00781 -2.11512,-2.83153 -3.3864,-7.22049 -3.60156,-13.24805 -0.22589,-6.02776 0.71397,-10.49545 2.60937,-13.46875 1.89541,-2.97329 4.73196,-4.4798 8.42188,-4.61523 z"
           id="path3978"
           sodipodi:nodetypes="cscscscsccscscscsc" />
        <path
           style="color:#000000;fill:#c1272d"
           d="m 295.60156,451.00586 -19.70703,3.45898 0.51758,2.90039 8.17773,-1.43359 4.35157,24.75391 3.34765,-0.59375 -4.35152,-24.74219 8.16602,-1.44336 z"
           id="polygon3982"
           transform="matrix(1.5390458,0,0,1.5390458,-6.5517216,-6.4806273)"
           sodipodi:nodetypes="ccccccccc" />
        <path
           style="color:#000000;fill:#c1272d"
           d="m 478.11914,679.00195 -15.20703,4.91992 13.27151,41.10743 12.83985,-4.15235 c 5.56012,-1.79401 8.91718,-4.22404 10.63086,-7.00781 1.71332,-2.78319 1.7557,-5.90068 0.75586,-8.98047 v -0.002 c -1.62176,-5.04143 -6.12099,-8.02598 -10.98047,-7.87305 1.97162,-1.57403 3.27018,-3.27909 3.8457,-5.13867 0.61365,-1.98278 0.47865,-4.11249 -0.25195,-6.37305 -1.35895,-4.22783 -5.0204,-7.07453 -8.20604,-7.19537 -3.18563,-0.12084 -4.90102,0.1161 -6.69829,0.69542 z m 6.7129,4.31446 c 1.5484,0.66148 2.66477,2.06336 3.39063,4.30664 0.53243,1.65373 0.43483,3.5118 -0.6211,5.24023 -1.05593,1.72843 -3.08256,3.33651 -6.45117,4.43555 l -7.625,2.46679 -4.24219,-13.14453 10.05766,-3.26486 c 0.63969,-0.21017 1.78613,-0.43692 2.80562,-0.47732 1.01949,-0.0404 1.91135,0.10676 2.68555,0.4375 z m 5.84567,17.97461 c 2.2306,0.78886 3.86871,2.43654 4.67579,4.96289 h 0.002 v 0.002 c 0.81081,2.48144 0.59176,4.46839 -0.61914,6.13476 -1.2109,1.66638 -3.45538,3.0208 -6.74805,4.09571 l -8.21875,2.64258 -4.87305,-15.07618 7.55079,-2.44531 c 1.58209,-0.51114 3.08124,-0.7877 4.46482,-0.83792 1.38357,-0.0502 2.6503,0.12703 3.76559,0.52147 z"
           id="path3986"
           sodipodi:nodetypes="ccccscccscccscscccccsscccscccccs" />
        <path
           style="color:#000000;fill:#c1272d"
           d="m 519.16406,662.11133 -6.64844,3.21094 6.79297,44.66992 4.9375,-2.36524 -2.1875,-13.79101 13.48047,-6.49805 9.41406,10.30078 4.9375,-2.37109 z m -1.53906,4.97461 14.75586,16.77343 -11.08008,5.33399 -3.92773,-21.99024 z"
           id="path3990"
           sodipodi:nodetypes="cccccccccccccc" />
        <path
           style="color:#000000;fill:#c1272d"
           d="m 359.81055,424.21875 -2.85352,1.84961 15.33009,23.52344 13.85937,-9.03125 -1.60937,-2.45313 -11.00586,7.16602 z"
           id="polygon3994"
           transform="matrix(1.5390458,0,0,1.5390458,-6.5517216,-6.4806273)"
           sodipodi:nodetypes="ccccccc" />
        <path
           style="color:#000000;fill:#c1272d"
           d="m 380.45508,409.39258 -2.61328,2.18945 18.08593,21.46484 12.64844,-10.6621 -1.88476,-2.24024 -10.06055,8.4707 z"
           id="polygon3998"
           transform="matrix(1.5390458,0,0,1.5390458,-6.5517216,-6.4806273)"
           sodipodi:nodetypes="ccccccc" />
      </g>
    </g>
    <g
       id="g17621">
      <g
         id="g15930">
        <path
           id="path3810"
           d="m 165.07846,1303.5023 c -46.20057,-50.3417 -74.427844,-117.4125 -74.427844,-190.957 l -76.72746,1.6857 c 0.422197,91.3097 35.067753,174.6681 91.713934,237.8883 z"
           inkscape:connector-curvature="0"
           style="fill:#9d9fa2;stroke-width:0.628363"
           sodipodi:nodetypes="ccccc" />
        <path
           id="path15614"
           style="fill:#ffffff;stroke-width:0.628363"
           d="m 90.650302,1112.5446 -2.435547,0.053 -27.822265,35.9805 -43.5,-34.4121 -2.96875,0.064 c 0.0038,0.818 0.0298,1.6306 0.03906,2.4473 l 44.111328,34.8965 -34.359375,44.4336 c 0.393234,1.6472 0.808722,3.2853 1.22461,4.9238 l 53.58789,26.1562 -22.644531,53.8653 c 0.934432,1.7542 1.887102,3.4975 2.84961,5.2343 l 55.095708,9.9688 -9.78711,54.1426 c 0.53446,0.6045 1.05725,1.2193 1.5957,1.8203 l 2.25977,-1.8496 9.66015,-53.4395 45.59375,8.2481 1.92774,-1.5762 c -0.69554,-0.7579 -1.37319,-1.5314 -2.06055,-2.2969 l -44.78711,-8.1035 7.88086,-43.6094 c -0.85322,-1.534 -1.69617,-3.0736 -2.52148,-4.625 l -40.181647,-19.6133 16.757817,-39.8632 c -0.591733,-2.2171 -1.152727,-4.4476 -1.691411,-6.6856 l -35.111328,-27.7754 27.324219,-35.3359 c -0.01081,-1.0164 -0.03711,-2.0299 -0.03711,-3.0488 z m -29.605468,41.3808 36.201171,28.6387 -17.248046,41.0254 -52.867188,-25.8047 z m 20.892578,74.8262 40.499998,19.7676 -7.93555,43.9082 -55.138667,-9.9766 z" />
        <path
           id="path15618"
           style="fill:#9d9fa2;fill-opacity:1;stroke-width:0.628363"
           d="m 90.648349,1112.5446 -0.607422,0.014 -29.404297,38.0235 -45.970703,-36.3672 -0.742187,0.016 c 9.45e-4,0.2043 0.0085,0.4071 0.0098,0.6113 l 46.123047,36.4903 -35.917968,46.4492 c 0.109912,0.4502 0.230185,0.8961 0.341796,1.3457 l 55.876954,27.2734 -23.605469,56.1504 c 0.366617,0.6799 0.736561,1.3579 1.107422,2.0352 l 57.619148,10.4238 -10.24024,56.6563 c 0.13397,0.15 0.26422,0.3033 0.39843,0.4531 l 0.56641,-0.4629 10.20704,-56.4766 48.18553,8.7168 0.48243,-0.3945 c -0.17334,-0.1889 -0.34084,-0.3829 -0.51368,-0.5723 l -47.98632,-8.6816 8.44531,-46.7246 c -0.094,-0.1722 -0.18956,-0.3432 -0.2832,-0.5156 l -43.162108,-21.0665 18.005859,-42.832 c -0.184509,-0.7153 -0.369806,-1.4309 -0.548828,-2.1484 l -37.654297,-29.7891 29.279297,-37.8633 c -6.78e-4,-0.2544 -0.0098,-0.5071 -0.0098,-0.7617 v 0 z m -29.847656,39.375 38.171875,30.1992 -18.248047,43.4062 -55.787109,-27.2304 z m 20.408203,74.8964 42.818364,20.8985 -8.38086,46.3633 -58.281254,-10.543 z" />
      </g>
      <g
         id="g16067"
         transform="matrix(-1,0,0,1,750.5898,0)">
        <path
           id="path16061"
           d="m 165.07846,1303.5023 c -46.20057,-50.3417 -74.427844,-117.4125 -74.427844,-190.957 l -76.72746,1.6857 c 0.422197,91.3097 35.067753,174.6681 91.713934,237.8883 z"
           inkscape:connector-curvature="0"
           style="fill:#9d9fa2;stroke-width:0.628363"
           sodipodi:nodetypes="ccccc" />
        <path
           id="path16063"
           style="fill:#ffffff;stroke-width:0.628363"
           d="m 90.650302,1112.5446 -2.435547,0.053 -27.822265,35.9805 -43.5,-34.4121 -2.96875,0.064 c 0.0038,0.818 0.0298,1.6306 0.03906,2.4473 l 44.111328,34.8965 -34.359375,44.4336 c 0.393234,1.6472 0.808722,3.2853 1.22461,4.9238 l 53.58789,26.1562 -22.644531,53.8653 c 0.934432,1.7542 1.887102,3.4975 2.84961,5.2343 l 55.095708,9.9688 -9.78711,54.1426 c 0.53446,0.6045 1.05725,1.2193 1.5957,1.8203 l 2.25977,-1.8496 9.66015,-53.4395 45.59375,8.2481 1.92774,-1.5762 c -0.69554,-0.7579 -1.37319,-1.5314 -2.06055,-2.2969 l -44.78711,-8.1035 7.88086,-43.6094 c -0.85322,-1.534 -1.69617,-3.0736 -2.52148,-4.625 l -40.181647,-19.6133 16.757817,-39.8632 c -0.591733,-2.2171 -1.152727,-4.4476 -1.691411,-6.6856 l -35.111328,-27.7754 27.324219,-35.3359 c -0.01081,-1.0164 -0.03711,-2.0299 -0.03711,-3.0488 z m -29.605468,41.3808 36.201171,28.6387 -17.248046,41.0254 -52.867188,-25.8047 z m 20.892578,74.8262 40.499998,19.7676 -7.93555,43.9082 -55.138667,-9.9766 z" />
        <path
           id="path16065"
           style="fill:#9d9fa2;fill-opacity:1;stroke-width:0.628363"
           d="m 90.648349,1112.5446 -0.607422,0.014 -29.404297,38.0235 -45.970703,-36.3672 -0.742187,0.016 c 9.45e-4,0.2043 0.0085,0.4071 0.0098,0.6113 l 46.123047,36.4903 -35.917968,46.4492 c 0.109912,0.4502 0.230185,0.8961 0.341796,1.3457 l 55.876954,27.2734 -23.605469,56.1504 c 0.366617,0.6799 0.736561,1.3579 1.107422,2.0352 l 57.619148,10.4238 -10.24024,56.6563 c 0.13397,0.15 0.26422,0.3033 0.39843,0.4531 l 0.56641,-0.4629 10.20704,-56.4766 48.18553,8.7168 0.48243,-0.3945 c -0.17334,-0.1889 -0.34084,-0.3829 -0.51368,-0.5723 l -47.98632,-8.6816 8.44531,-46.7246 c -0.094,-0.1722 -0.18956,-0.3432 -0.2832,-0.5156 l -43.162108,-21.0665 18.005859,-42.832 c -0.184509,-0.7153 -0.369806,-1.4309 -0.548828,-2.1484 l -37.654297,-29.7891 29.279297,-37.8633 c -6.78e-4,-0.2544 -0.0098,-0.5071 -0.0098,-0.7617 v 0 z m -29.847656,39.375 38.171875,30.1992 -18.248047,43.4062 -55.787109,-27.2304 z m 20.408203,74.8964 42.818364,20.8985 -8.38086,46.3633 -58.281254,-10.543 z" />
      </g>
    </g>
    <g
       id="g17611">
      <g
         id="g16538"
         transform="translate(2.2126221,-0.008325)">
        <path
           style="fill:#9d9fa2;stroke-width:0.628363"
           d="m 374.16593,1321.9332 c -5.32083,1.1506 -24.62791,6.0204 -44.01367,10.7246 -9.73635,2.3627 -19.47352,4.6784 -27.44532,6.4512 -7.62606,1.6959 -13.21729,2.7885 -16.19726,3.0645 -0.0568,0.2633 -0.10819,0.4545 -0.17969,0.9414 -0.10982,0.7475 -0.22719,1.7137 -0.34766,2.8242 -0.24094,2.2209 -0.49167,5.0232 -0.71875,7.8711 -0.35215,4.4166 -0.51631,7.7513 -0.63086,10.4101 27.69779,9.6967 57.44867,15.0293 88.45899,15.0293 31.33213,0 61.38219,-5.4339 89.32422,-15.3261 -0.33161,-5.1321 -1.52135,-17.4632 -2.15235,-21.0274 -14.03276,-3.8706 -73.81383,-17.8926 -86.09765,-20.9629 z"
           id="path16526" />
        <path
           style="fill:#9d9fa2;stroke-width:0.628363"
           d="m 220.49991,1303.402 c -1.52009,1.2111 -5.34504,4.1345 -9.78515,7.5039 -3.70469,2.8112 -6.43954,4.8758 -8.66407,6.5547 23.77843,19.7762 51.03792,35.4937 80.72461,46.1328 0.1281,-2.7688 0.26589,-5.7482 0.59961,-9.9336 0.22805,-2.8602 0.48048,-5.6734 0.72461,-7.9238 0.12207,-1.1251 0.24192,-2.1103 0.35742,-2.8965 0.0555,-0.3775 0.11672,-0.5693 0.16992,-0.8516 -6.44673,-1.7203 -19.00129,-6.5868 -31.88281,-13.4863 -12.91408,-6.917 -25.79912,-15.6728 -32.24414,-25.0996 z"
           id="path16524" />
        <path
           style="fill:#9d9fa2;stroke-width:0.628363"
           d="m 526.18155,1303.3219 c -6.07487,6.5862 -18.61682,15.6371 -31.5,23.5508 -6.63477,4.0756 -13.31511,7.8209 -19.16015,10.6973 -5.43653,2.6754 -9.9863,4.4851 -13.36329,5.2304 0.70258,4.0378 1.75457,14.895 2.11329,20.4961 29.29263,-10.6137 56.20097,-26.191 79.71484,-45.7226 -4.92698,-3.8495 -13.63739,-10.792 -17.80469,-14.252 z"
           id="path16522" />
        <path
           style="fill:#9d9fa2;stroke-width:0.628363"
           d="m 614.60929,1152.7282 c -0.49481,0.7536 -1.01114,1.5177 -1.68946,2.4003 -1.71802,2.2356 -4.00225,4.8604 -6.71289,7.7422 -5.42126,5.7635 -12.54266,12.5487 -20.16211,19.17 -7.61944,6.6213 -15.73511,13.0779 -23.15234,18.1757 -7.10621,4.884 -13.48477,8.4682 -18.39258,9.8145 -0.0321,2.2512 -0.3711,7.5617 -1.0918,15.2676 -0.7535,8.0569 -1.87507,18.2188 -3.35351,28.5527 -1.47844,10.3338 -3.31115,20.8354 -5.49414,29.5918 -2.04491,8.2024 -4.33945,14.7271 -7.16602,18.4219 4.20157,3.4876 13.29892,10.744 18.04688,14.4492 45.48522,-38.3355 78.02303,-91.5244 90.09961,-152.1231 -0.71428,-0.413 -1.01269,-0.635 -1.94141,-1.1406 -2.15352,-1.1724 -4.78346,-2.5515 -7.41601,-3.9336 -2.63255,-1.3822 -5.26768,-2.7657 -7.44141,-3.9492 -1.89989,-1.0345 -3.19156,-1.8004 -4.13281,-2.4394 z"
           id="path16520" />
        <path
           style="fill:#9d9fa2;stroke-width:0.628363"
           d="m 131.75968,1151.3063 c -2.3578,1.5497 -6.53714,4.2804 -11.15821,7.2422 -4.32731,2.7736 -7.67605,4.837 -9.89453,6.1054 12.13661,60.3447 44.58094,113.3078 89.87891,151.5371 2.18402,-1.6477 5.14366,-3.8804 8.98437,-6.7949 4.51698,-3.4277 8.57507,-6.5302 9.90625,-7.5937 -6.03356,-10.0783 -9.90238,-30.2845 -12.41406,-49.4551 -2.52694,-19.2871 -3.56381,-36.9972 -3.59961,-42.0508 -0.65093,-0.3994 -16.29058,-10.006 -33.16211,-22.2344 -8.61238,-6.2422 -17.44224,-13.0999 -24.57226,-19.6543 -6.74259,-6.1981 -11.87425,-12.0349 -13.96875,-17.1015 z"
           id="path16518" />
        <path
           style="fill:#9d9fa2;stroke-width:0.628363"
           d="m 636.62296,1065.0446 c -0.28498,0.151 -0.48221,0.2734 -0.78906,0.4316 -2.29381,1.1823 -5.16901,2.5513 -8.12305,3.9004 -5.20304,2.3761 -9.90993,4.321 -12.82617,5.4238 0.9276,2.9702 1.66247,6.8008 2.18554,11.9571 0.70425,6.9422 1.1034,15.3864 1.24024,23.8437 0.13684,8.4572 0.0107,16.9247 -0.33985,23.9082 -0.35057,6.9834 -0.88488,12.4009 -1.71875,15.1074 -0.13581,0.4412 -0.45402,0.9736 -0.71093,1.4746 0.74504,0.5125 2.14278,1.3424 4.10742,2.4121 2.15349,1.1725 4.78348,2.5534 7.41601,3.9356 2.63254,1.3821 5.2677,2.7658 7.44141,3.9492 0.63823,0.3474 0.84416,0.513 1.38867,0.8184 3.13948,-16.3983 4.84375,-33.3068 4.84375,-50.6211 0,-15.8838 -1.46212,-31.4177 -4.11523,-46.541 z"
           id="path16516" />
        <path
           style="fill:#9d9fa2;stroke-width:0.628363"
           d="m 199.5214,907.91566 c -45.5166,38.82189 -77.83896,92.60164 -89.37891,153.75974 4.10334,2.7396 16.36504,9.8724 20.83789,11.1524 l -0.52148,1.8222 c -5.12574,-1.4667 -15.89119,-7.8017 -20.67383,-10.9668 -2.81129,15.5506 -4.35938,31.5414 -4.35938,47.9024 0,17.4717 1.72833,34.5327 4.92383,51.0703 2.15173,-1.2627 5.14036,-3.0796 9.23047,-5.7012 4.80607,-3.0805 9.37067,-6.0641 11.60547,-7.5351 -1.47078,-9.9076 -2.74462,-24.737 -2.92774,-39.2832 -0.18737,-14.8844 0.70793,-29.2547 3.83789,-37.4825 l 0.008,-0.02 0.01,-0.019 c 2.03702,-4.6876 7.58455,-10.4304 14.78321,-16.6699 7.19866,-6.2395 16.05454,-12.8942 24.66992,-19.002 16.8759,-11.9642 32.43186,-21.5753 33.08203,-21.9766 0.0168,-1.8166 0.22929,-6.783 0.73047,-14.1445 0.5202,-7.64106 1.32474,-17.43376 2.46094,-27.56249 1.1362,-10.12874 2.60344,-20.59246 4.45703,-29.58985 1.76847,-8.58424 3.86406,-15.72634 6.48047,-20.17968 -0.57773,-0.65114 -1.91156,-1.91378 -3.88672,-3.5586 -2.18242,-1.81742 -4.89058,-3.96703 -7.5293,-6.02343 -4.02744,-3.13867 -6.23558,-4.78465 -7.83984,-5.99219 z"
           id="path16514" />
        <path
           style="fill:#9d9fa2;stroke-width:0.628363"
           d="m 545.8671,907.24378 c -4.81979,4.16591 -17.85497,17.01637 -18.625,17.77735 12.65006,25.9565 14.91469,72.71987 13.48437,89.92187 4.13139,1.6884 10.02493,5.1975 16.94336,9.873 7.22024,4.8795 15.39746,10.9012 23.24805,17.0313 7.85059,6.1301 15.37259,12.3663 21.28516,17.6738 5.91257,5.3075 10.17185,9.5593 11.70507,12.2364 0.162,0.2835 0.248,0.8965 0.39649,1.2363 2.79894,-1.0639 7.47186,-2.9892 12.61914,-5.3399 2.93611,-1.3409 5.79322,-2.7017 8.04297,-3.8613 0.51559,-0.2658 0.85985,-0.4711 1.30469,-0.7129 -11.37213,-62.0887 -44.12862,-116.66979 -90.4043,-155.83592 z"
           id="path16512" />
        <path
           style="fill:#9d9fa2;stroke-width:0.628363"
           d="m 282.02921,859.84925 c -29.85119,10.79785 -57.21107,26.76485 -81.04688,46.80078 1.71608,1.29255 3.66587,2.74217 7.54297,5.76368 2.6479,2.06355 5.36806,4.22206 7.57813,6.0625 1.86882,1.55626 3.02773,2.64342 3.88476,3.59179 14.95977,-11.29801 33.90409,-27.73598 64.70899,-36.0039 l 0.15429,-0.041 0.16016,0.0117 c 0.34805,0.026 0.89055,0.16362 1.25586,0.19922 -0.0153,-0.11705 -0.85438,-6.5357 -1.89453,-13.34766 -0.5248,-3.4369 -1.09681,-6.94406 -1.62891,-9.71875 -0.25211,-1.31465 -0.49324,-2.42779 -0.71484,-3.31836 z"
           id="path16510" />
        <path
           style="fill:#9d9fa2;stroke-width:0.628363"
           d="m 373.09171,843.9391 c -31.30696,0 -61.33533,5.42414 -89.25781,15.29882 0.24488,0.96682 0.50406,2.1817 0.77148,3.57618 0.54038,2.81785 1.11387,6.33926 1.64063,9.78906 1.05353,6.89959 1.91601,13.50781 1.91601,13.50781 l -1.4668,0.19336 c 12.93333,1.35086 35.77653,8.23833 54.98047,15.58398 l -0.67578,1.76758 c -19.77311,-7.56336 -43.89512,-14.76769 -55.98047,-15.70703 -30.56241,8.24638 -49.24413,24.61607 -64.33984,35.97461 -2.4771,3.94734 -4.70778,11.29863 -6.52734,20.13086 -1.83487,8.90651 -3.29753,19.32529 -4.42969,29.41797 -1.13217,10.09269 -1.93446,19.86194 -2.45313,27.4805 -0.51867,7.6185 -0.7539,13.1423 -0.7539,14.5527 v 0.5293 l -0.44922,0.2773 c 0,0 -16.2336,10.0046 -33.4043,22.1778 -8.58535,6.0866 -17.40421,12.7162 -24.52539,18.8886 -7.1107,6.1633 -12.5194,11.9514 -14.27539,15.9727 -2.90128,7.645 -3.895,21.9865 -3.70898,36.7637 0.18562,14.7447 1.49696,29.968 2.98632,39.7383 1.60736,4.5568 6.85804,10.7152 13.8711,17.1621 7.04088,6.4724 15.82578,13.2993 24.40234,19.5156 17.15311,12.4325 33.46484,22.4219 33.46484,22.4219 l 0.45118,0.2773 v 0.5293 c 1e-5,4.3843 1.05134,22.8044 3.61132,42.3438 2.55999,19.5392 6.73883,40.3732 12.54883,49.4511 5.85577,9.1513 18.98593,18.2283 32.15039,25.2793 13.09072,7.0116 26.21524,12.0615 32.14844,13.5645 2.50135,-0.1901 8.62904,-1.3842 16.50977,-3.1367 7.94971,-1.7679 17.67948,-4.0801 27.41015,-6.4414 19.46135,-4.7227 38.87822,-9.6284 44.25782,-10.7852 l 0.21679,-0.047 0.21289,0.055 c 12.00752,3.0063 72.7314,17.2381 86.71485,21.1152 3.01316,-0.563 7.8751,-2.4824 13.57422,-5.2871 5.77371,-2.8413 12.41352,-6.5599 19.00585,-10.6093 13.18468,-8.099 26.22462,-17.5869 31.72461,-23.8223 2.57231,-2.9159 5.15145,-9.7985 7.3086,-18.4512 2.15714,-8.6526 3.98421,-19.1097 5.45703,-29.4043 1.47281,-10.2946 2.59272,-20.4307 3.34375,-28.4609 0.75102,-8.0302 1.13086,-14.0207 1.13086,-15.7852 v -0.748 l 0.72656,-0.1738 c 4.46439,-1.0687 11.10599,-4.7196 18.43945,-9.7598 7.33347,-5.0402 15.40564,-11.4587 22.98243,-18.043 7.57679,-6.5842 14.66108,-13.3362 20.02343,-19.0371 2.68118,-2.8504 4.93207,-5.4399 6.5918,-7.5996 1.65973,-2.1597 2.72242,-3.9382 3.02344,-4.916 0.68049,-2.2087 1.29079,-7.7151 1.63867,-14.6445 0.34789,-6.9295 0.47409,-15.3633 0.33789,-23.7813 -0.13621,-8.418 -0.53651,-16.8234 -1.23242,-23.6836 -0.52989,-5.2235 -1.31355,-9.0556 -2.14649,-11.7246 l -0.51171,-1.4785 c 0.008,0 0.0428,-0.021 0.0508,-0.021 -0.10878,-0.2548 -0.20462,-0.8351 -0.31446,-1.0273 -1.1781,-2.057 -5.45922,-6.5011 -11.32617,-11.7676 -5.86694,-5.2666 -13.36343,-11.482 -21.18555,-17.5899 -7.82211,-6.1078 -15.97189,-12.111 -23.14257,-16.957 -7.17068,-4.846 -13.40442,-8.5416 -17.19922,-9.9941 l -0.66992,-0.2559 0.0664,-0.7148 c 1.48849,-16.33806 -0.86201,-64.71688 -13.47656,-90.08011 -13.36154,-14.04102 -46.42826,-32.85332 -65.80859,-38.89844 -6.10031,0.54526 -16.18572,2.80566 -27.57032,6.06836 l -0.52148,-1.82031 c 11.52842,-3.30392 21.72886,-5.61582 28.09961,-6.16407 l 0.18555,-0.0156 0.17578,0.0547 c 19.59239,6.05887 52.0384,24.39918 66.21875,38.91601 1.06643,-1.05619 13.21478,-13.04328 18.32031,-17.48047 -23.90988,-19.94816 -51.35126,-35.78897 -81.25195,-46.47656 -0.083,2.54514 -0.26094,6.54745 -0.59766,11.65625 -0.20275,3.07614 -0.42901,6.10595 -0.65234,8.47266 -0.11166,1.18336 -0.22314,2.19968 -0.33204,2.98437 -0.0545,0.39234 -0.10756,0.72549 -0.16406,1.00391 -0.0565,0.27843 -0.0873,0.47186 -0.22461,0.75 l -1.69726,-0.83985 c -0.0439,0.0889 0.0226,-0.0691 0.0664,-0.28515 0.0438,-0.21606 0.0934,-0.52039 0.14453,-0.88867 0.10222,-0.73655 0.2121,-1.73479 0.32227,-2.90235 0.22034,-2.33512 0.44445,-5.35262 0.64648,-8.41797 0.35326,-5.35961 0.55967,-9.92907 0.625,-12.16406 -27.6319,-9.64678 -57.29992,-14.95271 -88.22265,-14.95312 z"
           id="path3808" />
      </g>
      <g
         id="g17537">
        <g
           id="g16678">
          <path
             id="path3826"
             d="m 327.65551,992.93043 h 99.32096 c 6.22814,0.63179 1.24412,-14.88916 -2.4718,-21.11732 -3.73689,-6.20868 -16.76659,-22.97526 13.0312,-40.96951 10.1372,-4.84777 27.03853,-3.79378 37.88389,0.61384 9.27634,5.8823 34.93451,0.0958 9.92761,-14.27684 -21.73114,-8.68047 -27.93983,-9.31227 -32.90288,-11.19119 -4.96305,-1.85947 -16.48063,-14.25737 -21.73113,-17.38043 -5.52001,-3.27576 -26.08186,-5.59484 -38.51869,3.1051 -13.0297,4.35071 -103.05785,13.66299 -145.90479,35.39413 -6.20869,4.35071 -8.69995,11.80503 2.49126,12.41736 11.17173,0.61383 21.73113,0.6318 30.41161,1.24563 -3.10508,5.59485 -8.06814,8.70144 -9.92611,13.04916 -1.85946,4.33126 -7.45431,11.17174 12.41737,10.55941 19.89114,-0.6318 23.5891,-0.0195 18.01222,6.18922 -5.59486,6.20868 -9.31378,8.69994 8.06814,9.94557 17.38042,1.24563 18.62605,-2.4718 19.25934,1.24563 -3.73689,3.71593 0.6318,11.17024 0.6318,11.17024"
             inkscape:connector-curvature="0"
             style="fill:#ffffff;stroke-width:0.628363" />
          <g
             id="g2986"
             transform="matrix(0.97277831,0,0,0.97277831,5.682844,741.90593)">
            <path
               id="path3828"
               d="m 249.90102,196.76576 c 8.29392,-5.73294 97.01837,-31.91211 123.82855,-32.54312 -21.70824,7.6429 -84.25353,21.05876 -95.10688,31.91211 -10.20387,1.28049 -28.72167,0.63101 -28.72167,0.63101"
               inkscape:connector-curvature="0"
               style="fill:#9d9fa2;stroke-width:0.645947" />
            <path
               id="path3830"
               d="m 278.62269,219.10501 c 3.19198,-2.56251 81.69255,-40.20603 91.91643,-41.48652 10.22389,-1.26048 3.82145,1.28049 0,3.19044 -3.82145,1.9115 -60.00277,26.18071 -73.41864,38.94556 -10.83488,0.62947 -18.49779,-0.64948 -18.49779,-0.64948"
               inkscape:connector-curvature="0"
               style="fill:#9d9fa2;stroke-width:0.645947" />
            <path
               id="path3832"
               d="m 308.62485,238.25228 c 3.82145,-4.45246 54.64536,-42.70852 65.10626,-44.6785 -4.47247,6.40397 -44.6785,34.47309 -49.79891,45.32798 -6.38396,0.63101 -15.30735,-0.64948 -15.30735,-0.64948"
               inkscape:connector-curvature="0"
               style="fill:#9d9fa2;stroke-width:0.645947" />
            <path
               id="path3834"
               d="m 335.43503,249.75665 c 1.91149,-2.56251 39.57502,-42.76701 45.32798,-44.6785 5.73294,-1.92997 -2.1085,5.12194 -3.62446,6.81643 -1.75297,1.96998 -25.72669,27.93214 -27.67666,37.86207 -5.53595,0.17699 -14.02686,0 -14.02686,0"
               inkscape:connector-curvature="0"
               style="fill:#9d9fa2;stroke-width:0.645947" />
            <path
               id="path3836"
               d="m 367.34714,249.10563 c 3.82145,-2.54096 26.81018,-21.70824 26.81018,-35.73356 3.82145,2.56097 5.73295,18.51626 -12.13538,37.01405 -8.92184,0 -14.6748,-1.28049 -14.6748,-1.28049"
               inkscape:connector-curvature="0"
               style="fill:#9d9fa2;stroke-width:0.645947" />
            <path
               id="path3838"
               d="m 429.26142,251.01713 h -18.51626 c -0.63101,-9.57441 0.64947,-48.49842 16.60476,-53.60189 1.28049,3.82145 -10.22388,19.12726 -6.38088,30.63163 3.82145,11.4859 8.29238,22.97026 8.29238,22.97026"
               inkscape:connector-curvature="0"
               style="fill:#9d9fa2;stroke-width:0.645947" />
            <path
               id="path3840"
               d="m 405.01221,162.31114 c 3.17197,0 21.68823,-2.56097 30.63009,1.26048 8.94493,3.84146 12.76639,0.64948 8.94493,-1.26048 -3.84145,-1.91149 -18.20075,-10.04689 -28.74168,-8.94339 -7.09038,0.74797 -12.76484,1.92996 -14.6748,3.84146 -5.41898,5.85145 3.84146,5.10193 3.84146,5.10193"
               inkscape:connector-curvature="0"
               style="fill:#9d9fa2;stroke-width:0.645947" />
            <path
               id="path3842"
               d="m 452.25014,182.08942 v -7.66291 c 0,0 7.07192,0.72951 9.55286,1.28049 6.61944,1.43901 30.65318,8.92338 33.21261,12.76484 2.54096,3.84146 -3.93996,4.05693 -10.85489,0.64948 -10.49783,-5.17889 -31.91058,-7.0319 -31.91058,-7.0319"
               inkscape:connector-curvature="0"
               style="fill:#9d9fa2;stroke-width:0.645947" />
            <path
               id="path3844"
               d="m 430.5419,174.42651 c 0,0 1.9115,8.29392 8.94494,4.47247 7.01343,-3.82145 -1.28049,-10.91338 -5.12349,-10.85489 -2.55943,0.06 -13.61132,1.419 -16.1923,5.73294 -1.75297,2.93496 -0.39399,4.49094 2.79645,4.49094 3.17197,0 5.73294,-3.84146 9.5744,-3.84146"
               inkscape:connector-curvature="0"
               style="fill:#9d9fa2;stroke-width:0.645947" />
          </g>
        </g>
        <g
           id="g17475">
          <path
             id="path3822"
             d="m 285.94023,1056.5893 c 0,0 72.20606,-46.5659 86.48139,-51.3179 14.23791,6.6489 70.32715,31.3504 92.19302,52.2566 1.87743,19.9495 9.48446,83.6263 0,109.265 -10.46358,10.4621 -67.49153,51.3388 -89.35742,52.2775 -15.19607,-0.9387 -89.31699,-44.6495 -91.21538,-51.2999 -0.93871,-11.4023 -4.75195,-89.3349 1.89839,-111.1813"
             inkscape:connector-curvature="0"
             style="fill:#ffffff;stroke-width:0.628363" />
          <path
             id="path3824"
             d="m 542.52934,1016.6737 c 28.88004,14.4296 67.45411,49.4015 72.22553,57.9667 4.75196,8.5457 3.79228,66.5139 0.93722,75.0806 -2.8356,8.5457 -53.21471,55.1116 -73.16275,58.9069 -19.00781,-7.6085 -70.32713,-39.8976 -74.14038,-40.8558 6.64885,-14.2558 2.87303,-101.6969 0,-110.2441 12.36048,-7.5876 68.43025,-43.7303 74.14038,-40.8543"
             inkscape:connector-curvature="0"
             style="fill:#ffffff;stroke-width:0.628363" />
          <path
             id="path4032"
             d="m 208.06146,1016.6737 c -28.91597,14.4296 -67.49154,49.4015 -72.22403,57.9667 -4.75196,8.5457 -3.79378,66.5139 -0.95817,75.0806 2.85656,8.5457 53.21471,55.1116 73.1822,58.9069 19.00932,-7.6085 70.32864,-39.8976 74.14038,-40.8558 -6.66831,-14.2558 -2.87303,-101.6969 0,-110.2441 -12.37844,-7.5876 -68.42876,-43.7303 -74.14038,-40.8543"
             inkscape:connector-curvature="0"
             style="fill:#ffffff;stroke-width:0.628363" />
        </g>
        <g
           id="g16336">
          <path
             style="fill:#ffffff;stroke-width:0.628363"
             d="m 372.97647,1221.4469 c -0.0584,0 -0.36523,0.6699 -0.36523,0.6699 l -27.19141,60.3809 -27.19335,60.3613 -0.19141,0.4434 0.19141,0.4785 5.5957,13.1055 c -0.0389,-0.057 5.57617,15.1582 5.57617,15.1582 l 0.10742,-0.039 0.23047,0.6308 0.64844,0.045 c 0,0 31.09091,2.1269 43.31836,2.1269 12.22737,0 43.33984,-2.125 43.33984,-2.125 l 0.64648,-0.047 0.22266,-0.6074 5.58594,-15.2324 5.73828,-13.4844 -27.37305,-60.7637 -27.45703,-60.9531 h -0.17383 l -0.0664,-0.1465 H 373.703 v 0 z"
             id="path4004" />
          <g
             id="g6733"
             transform="matrix(0.97277831,0,0,0.97277831,5.682844,741.90593)">
            <path
               style="fill:#c1272d;fill-opacity:1;stroke-width:0.645947"
               d="m 391.50777,526.85152 13.42804,29.81553 27.76961,61.5987 -5.56959,13.02045 c -0.0193,0.0371 -5.18452,14.12176 -5.56556,15.16075 -0.27671,0.0187 -3.70487,0.22424 -4.97127,0.30719 l 4.38901,-14.26528 c -0.02,0.0385 4.76647,-13.45413 4.76647,-13.45413 l 0.12047,-0.39353 -0.13854,-0.39352 -23.28423,-62.19099 z"
               id="path5648" />
            <path
               style="fill:#c1272d;fill-opacity:1;stroke-width:0.645947"
               d="m 364.85851,526.71298 -10.98658,29.34371 -23.3043,62.21107 -0.15661,0.39352 0.13854,0.39353 4.80462,13.49429 c -0.0182,-0.035 3.62677,11.85889 4.33881,14.18296 -1.20635,-0.0793 -4.79422,-0.29424 -4.98532,-0.3072 l -5.51938,-15.10051 c -0.0371,-0.0371 -5.19431,-12.17524 -5.56959,-13.0586 l 27.74953,-61.5987 z"
               id="path5646" />
            <path
               style="fill:#c1272d;fill-opacity:1;stroke-width:0.645947"
               d="m 379.30649,526.21706 2.34108,31.43581 4.64399,62.63471 -0.93964,13.50032 -0.91354,14.65077 c -1.91797,0.0588 -3.61338,0.0914 -5.13189,0.1024 z"
               id="path5644" />
            <path
               style="fill:#c1272d;fill-opacity:1;stroke-width:0.645947"
               d="m 367.50677,526.21304 -9.04505,30.21509 -18.61614,62.32952 -0.0984,0.31523 0.0803,0.33329 3.84089,13.53444 c 0,-0.0367 2.98372,12.11302 3.5096,14.25524 -2.24551,-0.13749 -3.38555,-0.20481 -5.0054,-0.3092 l -4.62994,-15.04831 c -0.0194,-0.0583 -4.39307,-12.45494 -4.65002,-13.18308 l 23.12762,-61.79145 z"
               id="path5642" />
            <path
               style="fill:#c1272d;fill-opacity:1;stroke-width:0.645947"
               d="m 376.99955,526.20903 v 122.32601 c -1.53224,-0.0144 -3.22278,-0.0481 -5.1359,-0.10842 l -0.90952,-14.56042 -0.93964,-13.51035 4.64199,-62.66483 z"
               id="path5640" />
            <path
               style="fill:#c1272d;fill-opacity:1;stroke-width:0.645947"
               d="m 388.76113,526.11265 11.52265,30.75116 23.14971,61.7794 -4.65203,13.11482 c -0.0193,0.0386 -4.35753,14.15972 -4.66207,15.15071 -1.67533,0.10755 -2.72702,0.17015 -5.00941,0.3092 l 3.54574,-14.35563 c 0,0.0385 3.82081,-13.47421 3.82081,-13.47421 l 0.0783,-0.3353 -0.0964,-0.31522 -18.63622,-62.32752 z"
               id="path5638" />
            <path
               style="fill:#c1272d;fill-opacity:1;stroke-width:0.645947"
               d="m 386.33573,526.11065 9.25988,30.97001 18.55992,61.99021 -3.74651,13.20115 c 0,0.0372 -3.47088,14.11485 -3.71239,15.09449 -2.0148,0.11876 -2.89253,0.16427 -5.06362,0.2831 l 2.69042,-14.43393 c 0,0.0216 2.85507,-13.51236 2.85507,-13.51236 l 0.0582,-0.23491 -0.0582,-0.23692 -13.9862,-62.46606 z"
               id="path5636" />
            <path
               style="fill:#c1272d;fill-opacity:1;stroke-width:0.645947"
               d="m 383.95852,526.07852 6.98908,31.1989 13.9099,62.20705 -2.80085,13.30154 c 0,0.0193 -2.57743,13.93874 -2.77074,14.98206 -1.71158,0.0905 -3.378,0.17575 -5.07566,0.257 l 1.7809,-14.43394 c 0,0.02 1.9114,-13.57259 1.9114,-13.57259 l 0.0201,-0.15861 -0.0201,-0.15862 -9.32011,-62.56243 z"
               id="path5634" />
            <path
               style="fill:#c1272d;fill-opacity:1;stroke-width:0.645947"
               d="m 370.02453,525.8657 -6.91279,30.9158 -13.9862,62.48814 -0.0582,0.23491 0.0582,0.23491 2.85507,13.55452 c 0,-0.0356 2.29012,12.33771 2.6603,14.33756 -2.22961,-0.12271 -2.99065,-0.16339 -5.04354,-0.2851 l -3.70235,-15.01619 c 0,-0.0376 -3.54755,-12.58653 -3.72644,-13.21923 l 18.51977,-62.01229 z"
               id="path5632" />
            <path
               style="fill:#c1272d;fill-opacity:1;stroke-width:0.645947"
               d="m 381.58934,525.85566 4.70824,31.61852 9.29402,62.3998 -1.88731,13.39992 c -0.0192,0.0192 -1.70779,13.70947 -1.85118,14.87163 -1.78198,0.0801 -3.44814,0.14907 -5.09775,0.20881 l 0.9035,-14.42791 c 0,0.02 0.94366,-13.57259 0.94366,-13.57259 l 0.0201,-0.0803 -0.0201,-0.0783 -4.66809,-62.70096 z"
               id="path5630" />
            <path
               style="fill:#c1272d;fill-opacity:1;stroke-width:0.645947"
               d="m 374.71671,525.85365 -2.3471,31.66069 -4.66809,62.75919 -0.0201,0.0803 0.0201,0.0783 0.94567,13.59267 c 0,-0.0186 0.7782,12.40877 0.89748,14.31748 -1.65925,-0.0613 -3.33831,-0.13365 -5.12386,-0.21483 l -1.82105,-14.77324 c 0,-0.0197 -1.8358,-13.06045 -1.88531,-13.41198 l 9.29201,-62.44798 z"
               id="path5628" />
            <path
               style="fill:#c1272d;fill-opacity:1;stroke-width:0.645947"
               d="m 372.38969,525.79944 -4.66608,31.35952 -9.32012,62.60258 -0.0201,0.16063 0.0201,0.17467 1.91141,13.5726 c 0,-0.0186 1.54727,12.4008 1.78893,14.33956 -1.70209,-0.0821 -3.36818,-0.16601 -5.07968,-0.25699 l -2.77676,-14.91179 c 0,-0.0196 -2.70038,-12.8314 -2.80286,-13.3176 l 13.89384,-62.22713 z"
               id="path5626" />
          </g>
        </g>
        <g
           id="g17300"
           transform="translate(2.7727562)">
          <g
             id="g17078">
            <path
               id="polygon4034"
               clip-path="none"
               style="fill:#c1272d;stroke-width:0.419706"
               inkscape:label="polygon4034"
               transform="matrix(1.4971504,0,0,1.4971504,-0.69052867,735.60172)"
               d="m 159.72,245.783 -6.067,15.462 -12.211,-0.051 6.464,14.476 -8.384,19.353 -27.276,-61.335 6.797,-16.575 h 40.318 l 5.658,15.82 h -36.171 l 5.657,12.748 z" />
            <path
               id="polygon4036"
               clip-path="none"
               mask="none"
               style="fill:#9d9fa2;stroke-width:0.419706"
               transform="matrix(1.4971504,0,0,1.4971504,-0.69052867,735.60172)"
               d="m 136.002,243.479 h 24.601 l 3.686,-8.281 h -32.062 z" />
            <path
               id="polygon4038"
               clip-path="none"
               style="fill:#9d9fa2;stroke-width:0.419706"
               transform="matrix(1.4971504,0,0,1.4971504,-0.69052867,735.60172)"
               d="m 152.578,263.447 -3.776,8.678 -3.891,-8.678 z" />
          </g>
          <g
             id="g16357">
            <path
               style="fill:#c1272d;stroke-width:0.628363"
               d="m 373.85929,1158.3063 c -0.018,0 -4.8086,1.1504 -4.8086,1.1504 -5.09779,1.2636 -11.9189,2.949 -14.41015,3.2754 -0.14143,0.968 -0.32841,3.9276 -0.36133,5.0781 6.1717,2.164 12.80212,3.3535 19.71289,3.3535 6.71056,0 13.15485,-1.1262 19.17383,-3.1719 -0.0759,-0.9724 -0.46823,-3.9532 -0.64258,-5.0879 l -13.31836,-3.2558 c 0,0 -5.3457,-1.3044 -5.3457,-1.3418 z"
               id="path1647" />
            <path
               style="fill:#c1272d;stroke-width:0.628363"
               d="m 339.76944,1154.3395 -3.94531,2.9824 c 5.15903,4.3102 11.05558,7.7659 17.47656,10.1445 0.0515,-1.182 0.20011,-3.6145 0.36133,-4.791 -2.93291,-0.8818 -10.9417,-4.37 -13.89258,-8.3359 z"
               id="path1645" />
            <path
               style="fill:#c1272d;stroke-width:0.628363"
               d="m 353.35342,1124.6168 -16.15429,9.4278 c 0.0389,2.8939 0.65112,15.5016 3.08399,19.3164 2.60654,4.0632 11.65187,7.8747 13.91406,8.4511 1.58997,-0.1152 9.40952,-2.0318 14.62109,-3.3164 0,0 2.81664,-0.6892 4.2539,-1.0156 v -21.7676 c -3.67848,-0.8039 -17.18856,-8.4143 -19.71875,-11.0957 z"
               id="path1641" />
            <path
               style="fill:#c1272d;stroke-width:0.628363"
               d="m 393.36319,1124.4059 c -2.81614,2.5871 -14.08529,10.636 -19.29688,11.3262 v 21.6523 l 5.36719,1.2656 c 0,0 13.41415,3.3161 13.4336,3.3536 2.77871,-0.4986 11.70787,-6.0179 14.04492,-8.6993 2.12595,-2.3759 2.85708,-15.5599 2.89453,-19.4121 z"
               id="path1639" />
            <path
               style="fill:#c1272d;stroke-width:0.628363"
               d="m 320.12687,1120.7477 -4.52735,2.6914 c 2.65892,13.1683 9.66794,24.7523 19.45312,33.2148 l 4.17969,-3.1562 c -2.4134,-4.4465 -2.98989,-16.5961 -3.02734,-19.4512 -1.4178,-0.9013 -13.73957,-8.7759 -16.07812,-13.2988 z"
               id="path1635" />
            <path
               style="fill:#c1272d;stroke-width:0.628363"
               d="m 315.31632,1101.3278 c -0.57954,3.3346 -0.90039,6.7583 -0.90039,10.2578 0,3.689 0.35235,7.2932 0.99414,10.7969 l 4.39062,-2.5918 c -0.30691,-2.2622 -0.63281,-5.8651 -0.63281,-9.3145 0,-2.6065 0.19123,-5.0585 0.65235,-6.7832 -1.04477,-0.3071 -3.22281,-1.5687 -4.50391,-2.3652 z"
               id="path1631" />
            <path
               style="fill:#c1272d;stroke-width:0.628363"
               d="m 336.54679,1090.9664 c -1.82053,1.1304 -14.10194,8.9121 -15.57813,12.2852 -0.5749,1.551 -0.80664,4.2913 -0.80664,7.2422 0,3.4689 0.32597,7.1869 0.65235,9.4297 1.32198,3.8506 13.98944,12.0511 15.90429,13.2578 l 16.19336,-9.4649 c -0.19313,-2.8371 -0.97817,-18.7222 0.36328,-24.0117 z"
               id="path1629" />
            <path
               style="fill:#c1272d;stroke-width:0.628363"
               d="m 334.71085,1066.818 c -9.74201,8.5567 -16.66522,20.2341 -19.20899,33.4707 1.12067,0.7149 3.66183,2.1789 4.60547,2.4648 1.87743,-3.8521 14.50609,-11.7471 15.94336,-12.6484 0.0389,-2.0122 0.84315,-15.5218 3.0664,-19.9668 -0.61065,-0.5956 -2.71335,-2.1217 -4.40624,-3.3203 z"
               id="path1623" />
            <path
               style="fill:#c1272d;stroke-width:0.628363"
               d="m 354.17569,1062.4918 c -5.91972,1.59 -9.81053,4.5597 -12.93359,6.9746 0,0 -1.07348,0.8243 -1.10938,0.8223 -2.16637,3.412 -3.00957,17.4209 -3.08593,19.7969 l 16.78711,8.7754 c 1.95378,-1.2457 15.06022,-9.6389 18.60546,-11.0762 l -0.0196,-18.9902 c -2.87452,-1.9942 -14.0087,-5.9779 -18.24414,-6.3028 z"
               id="path1619" />
            <path
               style="fill:#c1272d;stroke-width:0.628363"
               d="m 392.65421,1062.1657 c -3.73539,0.3263 -14.88914,3.7937 -19.25782,6.6308 l 0.0586,19.0098 0.72656,0.3437 c 4.40761,2.0317 14.5839,6.6884 19.18164,10.9043 l 16.46289,-8.9687 c 0.0375,-0.557 0.0566,-1.247 0.0566,-2.0899 0,-4.5797 -0.68898,-12.7424 -2.95118,-17.3027 -3.00777,-3.1994 -10.38625,-7.2817 -14.27734,-8.5273 z"
               id="path1617" />
            <path
               style="fill:#c1272d;stroke-width:0.628363"
               d="m 353.22648,1055.736 c -6.53834,2.4335 -12.52789,5.9872 -17.75001,10.4199 1.14211,0.794 3.31507,2.3347 4.27345,3.1953 l 0.88085,-0.6719 c 3.18144,-2.4523 7.14889,-5.4801 13.39649,-7.1465 -0.28403,-2.5171 -0.60338,-4.8916 -0.80078,-5.7968 z"
               id="path1615" />
            <path
               style="fill:#c1272d;stroke-width:0.628363"
               d="m 373.9921,1052.0075 c -6.94642,0 -13.60987,1.202 -19.8086,3.3886 0.29724,1.3778 0.64226,4.2596 0.85743,6.2344 5.01995,0.7276 14.98445,4.349 17.87695,6.3223 4.44653,-2.8925 15.25456,-6.2845 19.54687,-6.7246 l -0.13476,-0.076 c 0.12755,-0.4521 0.41179,-4.9671 0.44336,-6.1035 -5.90636,-1.9624 -12.21685,-3.041 -18.78125,-3.041 z"
               id="path3848" />
            <path
               style="fill:#9d9fa2;stroke-width:0.628363"
               d="m 407.35343,1154.3004 c -0.10542,0.1085 -0.26449,0.2374 -0.38477,0.3516 -2.98345,2.8311 -10.31736,7.2938 -13.43164,8.2148 0.081,0.5597 0.15704,1.2904 0.25196,2.0332 0.0929,0.6987 0.13602,1.0804 0.21093,1.7207 0.039,0.3487 0.10558,0.7815 0.13086,1.0547 6.45545,-2.3169 12.3953,-5.7062 17.58789,-9.9804 l -3.49218,-2.7168 z"
               id="path1663" />
            <path
               style="fill:#9d9fa2;stroke-width:0.628363"
               d="m 426.9003,1121.0348 c -0.30654,0.419 -0.72383,0.9156 -1.22656,1.4648 -0.50269,0.5492 -1.08982,1.1503 -1.74023,1.7832 -7.2e-4,7e-4 -9.7e-4,10e-4 -0.002,0 -1.30095,1.2659 -2.84792,2.6522 -4.44921,3.9746 -0.80066,0.6612 -1.6149,1.3065 -2.41798,1.9121 -1.60613,1.2113 -3.16894,2.2642 -4.49414,2.9746 -0.6626,0.3553 -1.26546,0.6248 -1.78515,0.7852 -0.01,0.4214 -0.0405,1.6206 -0.11914,3.2422 -5e-5,9e-4 4e-5,9e-4 0,0 -1.4e-4,0 1.4e-4,0.01 0,0.01 -0.11821,2.4316 -0.3437,5.8072 -0.76368,8.9278 -0.14019,1.0416 -0.30145,2.0539 -0.48827,2.9941 -1.2e-4,6e-4 1.1e-4,10e-4 0,0 -9.8e-4,0.01 -0.003,0.01 -0.004,0.016 -0.18473,0.9271 -0.39435,1.7822 -0.63085,2.5235 -0.002,0 -0.002,0.011 -0.004,0.016 -0.1201,0.3754 -0.24814,0.7205 -0.38281,1.0313 -0.13449,0.3103 -0.27598,0.5855 -0.42579,0.8203 l 0.61915,0.4824 3.9121,3.0352 c 9.84295,-8.3511 16.92784,-19.8224 19.72852,-32.8829 l -2.52734,-1.4863 z"
               id="path1661" />
            <path
               style="fill:#9d9fa2;stroke-width:0.628363"
               d="m 432.66788,1101.3317 c -0.68269,0.3368 -1.50214,0.6897 -2.4082,1.0742 -1.13886,0.4924 -2.19936,0.9287 -2.9336,1.1992 -0.0514,0.02 -0.16801,0.07 -0.21484,0.088 0.0857,0.6131 0.17118,1.4144 0.25,2.336 0.0789,0.9216 0.15058,1.9608 0.21289,3.0508 4e-5,7e-4 -4e-5,9e-4 0,0 0.0623,1.0894 0.11439,2.2284 0.15039,3.3457 0.036,1.1186 0.0566,2.2144 0.0566,3.2207 0,1.0158 -0.0239,1.94 -0.0742,2.6992 -4e-5,6e-4 3e-5,0 0,0 -0.0251,0.3787 -0.0571,0.717 -0.0957,1.0039 -7e-5,5e-4 7e-5,10e-4 0,0 -0.0386,0.2865 -0.084,0.5231 -0.13672,0.6993 -1.4e-4,4e-4 1.5e-4,0 0,0 0,0.036 -0.0534,0.092 -0.0566,0.1328 l 5.03906,2.9317 c 0.72912,-3.7354 1.11134,-7.5692 1.11134,-11.5352 0,-3.4815 -0.30634,-6.9245 -0.9004,-10.2539 z"
               id="path1659" />
            <path
               style="fill:#9d9fa2;stroke-width:0.628363"
               d="m 410.34366,1090.9469 -16.53711,8.9883 0.13282,1.0723 c 0.40311,4.1534 1.14994,11.552 0.73828,17.3847 -0.13723,1.9443 -0.40326,3.7147 -0.85352,5.1328 l 16.53906,9.543 c 1.55123,-0.4458 4.12842,-2.1498 6.77344,-4.209 3.52613,-2.7451 7.176,-6.1196 8.68555,-7.9863 3.8e-4,-5e-4 -3.8e-4,0 0,0 0.18825,-0.2328 0.34371,-0.4413 0.46094,-0.623 3.9e-4,-6e-4 -4e-4,-10e-4 0,0 0.11692,-0.1814 0.19706,-0.3351 0.23437,-0.4571 1.3e-4,-4e-4 -1.3e-4,0 0,0 0.086,-0.2733 0.14033,-0.773 0.18359,-1.3496 0.0302,-0.4315 0.0475,-0.957 0.0586,-1.5117 0.003,-0.145 0.008,-0.274 0.01,-0.4258 0.0165,-1.4839 -0.02,-3.2658 -0.0918,-5.0625 -0.0654,-1.6367 -0.16256,-3.2179 -0.26563,-4.6289 -0.0301,-0.4053 -0.0585,-0.8302 -0.0899,-1.1914 -0.0256,-0.2976 -0.0521,-0.5848 -0.0781,-0.8457 -0.0765,-0.7595 -0.15327,-1.4302 -0.22461,-1.7696 -0.0275,-0.1241 -0.0991,-0.2743 -0.20704,-0.4453 -2.3e-4,-4e-4 2.4e-4,0 0,0 -0.10834,-0.1714 -0.25553,-0.3643 -0.43554,-0.5762 -2.4e-4,-3e-4 2.5e-4,0 0,0 -1.08306,-1.2746 -3.37956,-3.2244 -5.91602,-5.1464 -4.2e-4,-4e-4 -0.002,3e-4 -0.002,0 -0.84524,-0.6405 -1.71571,-1.2782 -2.57813,-1.8868 -4.5e-4,-3e-4 -0.002,4e-4 -0.002,0 -1.72513,-1.2172 -3.41231,-2.3196 -4.77344,-3.0976 -6e-4,-4e-4 -9.7e-4,3e-4 -0.002,0 -0.68067,-0.389 -1.27844,-0.6973 -1.75977,-0.8985 z"
               id="path1657" />
            <path
               style="fill:#9d9fa2;stroke-width:0.628363"
               d="m 372.93742,1088.6676 c -0.40237,0.1462 -0.9795,0.4184 -1.6836,0.7852 -1.2313,0.6413 -2.94888,1.6582 -4.69922,2.6992 -5.25581,3.1259 -11.59543,7.1771 -12.26172,7.5918 -0.15346,0.5367 -0.2784,1.2198 -0.38086,2.0137 -0.10246,0.7938 -0.1823,1.6968 -0.24219,2.6777 -4e-5,7e-4 5e-5,0 0,0 -0.11956,1.9619 -0.16211,4.2277 -0.16211,6.5176 0,2.7885 0.0665,5.6045 0.1504,7.9258 0.0838,2.3213 0.18457,4.1464 0.25195,4.9512 0.0909,0.1841 0.41878,0.4921 0.92969,0.8886 1.02182,0.7932 2.77411,1.9438 4.8164,3.1875 3.06334,1.8657 6.77903,3.9391 9.66602,5.3223 4.8e-4,2e-4 0.002,-2e-4 0.002,0 1.44341,0.6916 2.67858,1.211 3.52148,1.4453 0.28105,0.078 0.51822,0.1241 0.70508,0.1348 1.17826,-0.048 2.84146,-0.6435 4.70508,-1.543 1.86367,-0.8994 3.92852,-2.1013 5.91211,-3.3613 1.98273,-1.2595 3.88419,-2.5778 5.42188,-3.7071 8.3e-4,-6e-4 9.7e-4,-9e-4 0.002,0 0.76902,-0.5648 1.44644,-1.0814 1.99805,-1.5215 0.55158,-0.4399 0.97674,-0.8029 1.24023,-1.0566 0.37354,-1.0151 0.62182,-2.3131 0.77734,-3.7813 0.15516,-1.468 0.2168,-3.106 0.2168,-4.8007 0,-2.5587 -0.14382,-5.2562 -0.32812,-7.7071 -0.18453,-2.4506 -0.40908,-4.6553 -0.57227,-6.2265 0,0 -0.0758,-0.9001 -0.11328,-1.1875 -0.55095,-0.5151 -1.19853,-1.0427 -1.91797,-1.5743 -1.4389,-1.0631 -3.16473,-2.1432 -4.97851,-3.1836 -4.53432,-2.6008 -9.61761,-4.9461 -12.13282,-6.1074 0,0 -0.57575,-0.2675 -0.84374,-0.3828 z"
               id="path1655" />
            <path
               style="fill:#9d9fa2;stroke-width:0.628363"
               d="m 412.70499,1066.3453 -4.79296,4.1563 c 1.09824,2.3552 1.82041,5.4147 2.28124,8.4687 0.0171,0.1137 0.0403,0.2263 0.0566,0.3399 0.0142,0.098 0.0234,0.1946 0.0371,0.293 0.1969,1.4162 0.3374,2.8186 0.43164,4.1406 0.005,0.063 0.0133,0.1308 0.0176,0.1933 3e-5,7e-4 -5e-5,10e-4 0,0 0.0975,1.4271 0.13833,2.7453 0.14062,3.8789 6e-5,0.03 0.004,0.073 0.004,0.1035 0,0.8803 -0.0387,1.5697 -0.0762,2.1641 0.44299,0.1941 1.01429,0.4945 1.67773,0.8769 9.3e-4,6e-4 9.8e-4,10e-4 0.002,0 0.66356,0.3825 1.41796,0.8469 2.22656,1.3691 8.3e-4,5e-4 9.8e-4,10e-4 0.002,0 0.8088,0.5223 1.67227,1.1015 2.55078,1.7148 7.7e-4,5e-4 9.7e-4,10e-4 0.002,0 1.75788,1.2274 3.57993,2.5877 5.16407,3.8868 6.7e-4,5e-4 9.7e-4,9e-4 0.002,0 0.79153,0.6491 1.52315,1.283 2.15821,1.877 6.1e-4,5e-4 9.7e-4,9e-4 0.002,0 0.6339,0.593 1.17144,1.1472 1.57422,1.6367 5.3e-4,7e-4 9.7e-4,10e-4 0.002,0 4.8e-4,6e-4 9.7e-4,9e-4 0.002,0 0.20084,0.2444 0.36899,0.4722 0.49805,0.6816 0.12969,0.2101 0.21936,0.4014 0.26758,0.5704 0.20487,-0.08 0.53448,-0.2231 0.7793,-0.3223 0.70748,-0.2867 1.47603,-0.6063 2.29687,-0.9609 0.95467,-0.414 1.88562,-0.83 2.46289,-1.1231 0.008,0 0.0116,-0.01 0.0196,-0.01 -2.58692,-13.4877 -9.73151,-25.3673 -19.78907,-33.9512 z"
               id="path1653" />
            <path
               style="fill:#9d9fa2;stroke-width:0.628363"
               d="m 393.74991,1055.3883 c -0.0507,1.1458 -0.25374,4.9388 -0.45703,5.9844 2.08079,0.7089 4.74896,1.9779 7.31641,3.4805 0.64194,0.3756 1.27679,0.7648 1.89453,1.164 0.60992,0.3941 1.20437,0.7962 1.76953,1.2031 0.007,0 0.0145,0.011 0.0215,0.016 0.56771,0.4094 1.10855,0.8243 1.60937,1.2363 0.003,0 0.007,0 0.01,0.01 0.50343,0.4146 0.96707,0.8277 1.38086,1.2344 l 0.74413,-0.6445 3.92188,-3.4082 c -5.37665,-4.4357 -11.51701,-7.9173 -18.21094,-10.2735 z"
               id="path3850" />
          </g>
          <g
             id="g17073">
            <path
               id="polygon3864"
               style="fill:#c1272d;stroke-width:0.419706"
               transform="matrix(1.4971504,0,0,1.4971504,-0.69052867,735.60172)"
               d="m 363.283,261.194 6.464,14.476 -8.371,19.353 -27.275,-61.335 6.783,-16.575 h 40.318 l 5.645,15.82 h -36.171 l 5.67,12.748 25.215,0.102 -6.067,15.462 z" />
            <path
               id="polygon3866"
               style="fill:#9d9fa2;stroke-width:0.419706"
               transform="matrix(1.4971504,0,0,1.4971504,-0.69052867,735.60172)"
               d="m 386.13,235.198 h -32.063 l 3.763,8.281 h 24.614 z" />
            <path
               id="polygon3868"
               style="fill:#9d9fa2;stroke-width:0.419706"
               transform="matrix(1.4971504,0,0,1.4971504,-0.69052867,735.60172)"
               d="m 374.419,263.447 -3.764,8.678 -3.89,-8.678 z" />
          </g>
        </g>
      </g>
    </g>
  </g>
  <style
     id="style4"
     type="text/css" />
</svg>
